<?xml version="1.0" encoding="UTF-8"?>
<svg id="Layer_2" data-name="Layer 2" xmlns="http://www.w3.org/2000/svg" viewBox="0 0 82.68 100">
  <defs>
    <style>
      .cls-1 {
        fill: #e7eff3;
        stroke-width: 0px;
      }
    </style>
  </defs>
  <g id="santander">
    <path class="cls-1" d="m41.75,70.4c-.87.57-1.76,1.12-2.64,1.7-10.2-5.65-32.07-16.54-33.96-17.47-1.89-.93-5.57-2.48-5.12-5.82.63-4.73,8.83-15.07,12.32-19.32C31.3,6.43,39.68-.69,45.3.05c5.98.79,9.28,6.96,9.69,35.87-3.34-1.03-7.03-2.1-10.95-3.07-.32-4.19-1.09-10.54-1.46-12.73-.34-2.48-.82-3.41-1.81-3.54-.99-.13-3.82,2.48-6.31,5.02-1.14,1.16-4.37,4.37-7.89,7.97-2.92-.19-4.94.42-6.03,1.86-.44.7-.72,1.49-.82,2.31-.09.82,0,1.66.28,2.44l-4.59,4.6c-3.94,3.92-8.1,7.16-8.31,8.74-.17,1.3,1.82,2.65,4.65,4.37,6.92,4.12,23.98,13.32,30,16.51Zm26.5-28.8c-6.65-2.3-23.12-8.43-40.48-10.72-5.98-.79-8.38,1.34-5.92,7.02,2.46,5.68,8.75,15.03,15.3,22.08,6.56,7.05,13.73,8.96,16.03-1.91.07-.39.16-.79.23-1.17.52-2.6.91-5.23,1.17-7.88-2.92-1.32-6.19-2.74-9.47-4.12.19,2.5.48,6.8.63,10.12v1.22c.2,5.37-1.63,5.34-4.68,3.16-3.56-2.55-14.46-16.92-15.71-23.3,0-.42.15-.44.36-.36l.26.1c2.46.96,10.66,4.19,18.95,7.69,3.32,1.46,6.65,2.91,9.65,4.19,3,1.28,5.66,2.62,7.58,3.74,3.6,1.92,5,3.23,3.48,4.76-7.45,7.53-33.58,18.32-42.62,31.64l-.09.13c-.11.15-.21.31-.29.48l-.07.15c-.68,1.23-1.12,2.57-1.31,3.96-.38,2.91,1.14,5.59,5.33,6.71,1.16.34,2.35.56,3.56.67h.73c8.06.38,28.98-4.19,35.35-7.02,6.37-2.82,4.61-5.82,2.7-7.28-1.46-1.14-8.75-5.21-12.29-7.18l-2.64,1.73c3.41,2.01,6.7,4.21,9.85,6.6.54.42.23.93-.57.98h-.64c-5.74.39-16.62,1.15-21.72,1.46l-2.08.07c1.08-.99,2.21-1.9,3.4-2.75,10.92-7.66,29.15-18.44,34.47-23.08,3.96-3.29,14.74-13.8-8.45-21.9Z"/>
  </g>
</svg>