<?xml version="1.0" encoding="UTF-8"?>
<svg id="uuid-e1f6f555-1c5b-4304-8fdf-e068831dcde2" data-name="Layer 2" xmlns="http://www.w3.org/2000/svg" viewBox="0 0 855.68 825.99">
  <defs>
    <style>
      .uuid-f83d0ca0-c161-4e12-a31a-0992d2f13be1 {
        fill: #231f20;
      }
    </style>
  </defs>
  <g id="personal-projects" data-name="Layer 1">
    <g>
      <path class="uuid-f83d0ca0-c161-4e12-a31a-0992d2f13be1" d="m69.11,211.58c115.94,0,278.46-26.5,497.29-193.78-149.65,145.53-1.01,186.06,19.25,474.04,13.1,186.17-112.32,314.15-293.04,314.15-210.28,0-398.61-166.37-223.5-594.41Z"/>
      <path class="uuid-f83d0ca0-c161-4e12-a31a-0992d2f13be1" d="m778.06,155.23c42.87,0,77.61-34.75,77.61-77.61S820.93,0,778.06,0c-80.69,0-177.04,0-177.04,0-16.41,0-27.79,10.98-34.62,17.8s-39,34.79-38.16,87.37c.84,52.58,7.08,108.18,40.56,270.32,7.58,33.73,13.76,72.31,16.86,116.35,13.1,186.17-112.32,314.16-293.04,314.16-31.07,0-61.65-3.63-90.66-11.2l-2.74,20c29.31,7.45,60.55,11.21,93.4,11.21,94.52,0,178.05-33.76,235.19-95.06,28.05-30.1,49.03-65.83,62.33-106.19,13.63-41.35,18.83-86.53,15.47-134.3-8.22-116.78-69.46-342.19-55.42-381.16,11.23-31.16,34.62-47.29,50.67-47.29h41.38V15.99h135.82c34.5,0,62.47,27.97,62.47,62.47s-27.97,62.47-62.47,62.47h-73.56c-14.72,0-23.56,12.2-23.56,23.56s8.41,23.56,20.61,23.56l9.68-12.2h-8.83c-5.47,0-9.25-4.21-9.25-9.25s3.37-11.36,10.1-11.36c2.77,0,74.82,0,74.82,0Zm-186.54-96.2c-6.34,0-11.48-5.14-11.48-11.48s5.14-11.48,11.48-11.48,11.48,5.14,11.48,11.48-5.14,11.48-11.48,11.48Z"/>
    </g>
  </g>
</svg>